<svg width="217" height="215" viewBox="0 0 217 215" fill="none" xmlns="http://www.w3.org/2000/svg">
<mask id="mask0_38_816" style="mask-type:alpha" maskUnits="userSpaceOnUse" x="0" y="0" width="217" height="215">
<path d="M16.5 15C12 9.5 0 10.5 0 0H216.5V27C216.5 37.8 204 54 194 54C189 54 187.3 51.3 168.5 80.5C145 117 135.5 99 130 107C124.5 115 132 131 135.5 132C139 133 138.5 132 144.5 128.5C149.3 125.7 150.5 134 150.5 138.5C149.833 138 148.2 139.2 147 148C145.8 156.8 157.167 152.333 163 149C162.167 148 162.1 145.2 168.5 142C189.7 135.6 209.333 144.667 216.5 150V204.5C195.167 212.167 151.7 222.9 148.5 204.5C145.3 186.1 153.167 168.833 157.5 162.5C144.3 166.9 139.333 158 138.5 153C139.5 146.667 135.8 135.6 113 142C84.5 150 42.5 84 40.5 84.5C38.5 85 49.5 103 48 104.5C46.5 106 33.5 90.5 27.5 80.5C22.7 72.5 21.5 56.1667 21.5 49C30.3 33.4 21 20.5 16.5 15Z" fill="white"/>
<path d="M152.5 114.5C155.3 108.5 173.333 112 182 114.5C193.167 119.5 215.7 130.4 216.5 134C217.5 138.5 211 140 204 138.5C197 137 191.5 130 182 130.5C172.5 131 149 122 152.5 114.5Z" fill="white"/>
</mask>
<g mask="url(#mask0_38_816)">
<circle cx="6" cy="-1" r="4" fill="#3A2C5E"/>
<circle cx="18" cy="-1" r="4" fill="#3A2C5E"/>
<circle cx="30" cy="-1" r="4" fill="#3A2C5E"/>
<circle cx="42" cy="-1" r="4" fill="#3A2C5E"/>
<circle cx="54" cy="-1" r="4" fill="#3A2C5E"/>
<circle cx="66" cy="-1" r="4" fill="#3A2C5E"/>
<circle cx="78" cy="-1" r="4" fill="#3A2C5E"/>
<circle cx="90" cy="-1" r="4" fill="#3A2C5E"/>
<circle cx="102" cy="-1" r="4" fill="#3A2C5E"/>
<circle cx="114" cy="-1" r="4" fill="#3A2C5E"/>
<circle cx="126" cy="-1" r="4" fill="#3A2C5E"/>
<circle cx="138" cy="-1" r="4" fill="#3A2C5E"/>
<circle cx="150" cy="-1" r="4" fill="#3A2C5E"/>
<circle cx="162" cy="-1" r="4" fill="#3A2C5E"/>
<circle cx="174" cy="-1" r="4" fill="#3A2C5E"/>
<circle cx="186" cy="-1" r="4" fill="#3A2C5E"/>
<circle cx="198" cy="-1" r="4" fill="#3A2C5E"/>
<circle cx="210" cy="-1" r="4" fill="#3A2C5E"/>
<circle cx="6" cy="11" r="4" fill="#3A2C5E"/>
<circle cx="18" cy="11" r="4" fill="#3A2C5E"/>
<circle cx="30" cy="11" r="4" fill="#3A2C5E"/>
<circle cx="42" cy="11" r="4" fill="#3A2C5E"/>
<circle cx="54" cy="11" r="4" fill="#3A2C5E"/>
<circle cx="66" cy="11" r="4" fill="#3A2C5E"/>
<circle cx="78" cy="11" r="4" fill="#3A2C5E"/>
<circle cx="90" cy="11" r="4" fill="#3A2C5E"/>
<circle cx="102" cy="11" r="4" fill="#3A2C5E"/>
<circle cx="114" cy="11" r="4" fill="#3A2C5E"/>
<circle cx="126" cy="11" r="4" fill="#3A2C5E"/>
<circle cx="138" cy="11" r="4" fill="#3A2C5E"/>
<circle cx="150" cy="11" r="4" fill="#3A2C5E"/>
<circle cx="162" cy="11" r="4" fill="#3A2C5E"/>
<circle cx="174" cy="11" r="4" fill="#3A2C5E"/>
<circle cx="186" cy="11" r="4" fill="#3A2C5E"/>
<circle cx="198" cy="11" r="4" fill="#3A2C5E"/>
<circle cx="210" cy="11" r="4" fill="#3A2C5E"/>
<circle cx="6" cy="23" r="4" fill="#3A2C5E"/>
<circle cx="18" cy="23" r="4" fill="#3A2C5E"/>
<circle cx="30" cy="23" r="4" fill="#3A2C5E"/>
<circle cx="42" cy="23" r="4" fill="#3A2C5E"/>
<circle cx="54" cy="23" r="4" fill="#3A2C5E"/>
<circle cx="66" cy="23" r="4" fill="#3A2C5E"/>
<circle cx="78" cy="23" r="4" fill="#3A2C5E"/>
<circle cx="90" cy="23" r="4" fill="#3A2C5E"/>
<circle cx="102" cy="23" r="4" fill="#3A2C5E"/>
<circle cx="114" cy="23" r="4" fill="#3A2C5E"/>
<circle cx="126" cy="23" r="4" fill="#3A2C5E"/>
<circle cx="138" cy="23" r="4" fill="#3A2C5E"/>
<circle cx="150" cy="23" r="4" fill="#3A2C5E"/>
<circle cx="162" cy="23" r="4" fill="#3A2C5E"/>
<circle cx="174" cy="23" r="4" fill="#3A2C5E"/>
<circle cx="186" cy="23" r="4" fill="#3A2C5E"/>
<circle cx="198" cy="23" r="4" fill="#3A2C5E"/>
<circle cx="210" cy="23" r="4" fill="#3A2C5E"/>
<circle cx="6" cy="35" r="4" fill="#3A2C5E"/>
<circle cx="18" cy="35" r="4" fill="#3A2C5E"/>
<circle cx="30" cy="35" r="4" fill="#3A2C5E"/>
<circle cx="42" cy="35" r="4" fill="#3A2C5E"/>
<circle cx="54" cy="35" r="4" fill="#3A2C5E"/>
<circle cx="66" cy="35" r="4" fill="#3A2C5E"/>
<circle cx="78" cy="35" r="4" fill="#3A2C5E"/>
<circle cx="90" cy="35" r="4" fill="#3A2C5E"/>
<circle cx="102" cy="35" r="4" fill="#3A2C5E"/>
<circle cx="114" cy="35" r="4" fill="#3A2C5E"/>
<circle cx="126" cy="35" r="4" fill="#3A2C5E"/>
<circle cx="138" cy="35" r="4" fill="#3A2C5E"/>
<circle cx="150" cy="35" r="4" fill="#3A2C5E"/>
<circle cx="162" cy="35" r="4" fill="#3A2C5E"/>
<circle cx="174" cy="35" r="4" fill="#3A2C5E"/>
<circle cx="186" cy="35" r="4" fill="#3A2C5E"/>
<circle cx="198" cy="35" r="4" fill="#3A2C5E"/>
<circle cx="210" cy="35" r="4" fill="#3A2C5E"/>
<circle cx="6" cy="47" r="4" fill="#3A2C5E"/>
<circle cx="18" cy="47" r="4" fill="#3A2C5E"/>
<circle cx="30" cy="47" r="4" fill="#3A2C5E"/>
<circle cx="42" cy="47" r="4" fill="#3A2C5E"/>
<circle cx="54" cy="47" r="4" fill="#3A2C5E"/>
<circle cx="66" cy="47" r="4" fill="#3A2C5E"/>
<circle cx="78" cy="47" r="4" fill="#3A2C5E"/>
<circle cx="90" cy="47" r="4" fill="#3A2C5E"/>
<circle cx="102" cy="47" r="4" fill="#3A2C5E"/>
<circle cx="114" cy="47" r="4" fill="#3A2C5E"/>
<circle cx="126" cy="47" r="4" fill="#3A2C5E"/>
<circle cx="138" cy="47" r="4" fill="#3A2C5E"/>
<circle cx="150" cy="47" r="4" fill="#3A2C5E"/>
<circle cx="162" cy="47" r="4" fill="#3A2C5E"/>
<circle cx="174" cy="47" r="4" fill="#3A2C5E"/>
<circle cx="186" cy="47" r="4" fill="#3A2C5E"/>
<circle cx="198" cy="47" r="4" fill="#3A2C5E"/>
<circle cx="210" cy="47" r="4" fill="#3A2C5E"/>
<circle cx="6" cy="59" r="4" fill="#3A2C5E"/>
<circle cx="18" cy="59" r="4" fill="#3A2C5E"/>
<circle cx="30" cy="59" r="4" fill="#3A2C5E"/>
<circle cx="42" cy="59" r="4" fill="#3A2C5E"/>
<circle cx="54" cy="59" r="4" fill="#3A2C5E"/>
<circle cx="66" cy="59" r="4" fill="#3A2C5E"/>
<circle cx="78" cy="59" r="4" fill="#3A2C5E"/>
<circle cx="90" cy="59" r="4" fill="#3A2C5E"/>
<circle cx="102" cy="59" r="4" fill="#3A2C5E"/>
<circle cx="114" cy="59" r="4" fill="#3A2C5E"/>
<circle cx="126" cy="59" r="4" fill="#3A2C5E"/>
<circle cx="138" cy="59" r="4" fill="#3A2C5E"/>
<circle cx="150" cy="59" r="4" fill="#3A2C5E"/>
<circle cx="162" cy="59" r="4" fill="#3A2C5E"/>
<circle cx="174" cy="59" r="4" fill="#3A2C5E"/>
<circle cx="186" cy="59" r="4" fill="#3A2C5E"/>
<circle cx="198" cy="59" r="4" fill="#3A2C5E"/>
<circle cx="210" cy="59" r="4" fill="#3A2C5E"/>
<circle cx="6" cy="71" r="4" fill="#3A2C5E"/>
<circle cx="18" cy="71" r="4" fill="#3A2C5E"/>
<circle cx="30" cy="71" r="4" fill="#3A2C5E"/>
<circle cx="42" cy="71" r="4" fill="#3A2C5E"/>
<circle cx="54" cy="71" r="4" fill="#3A2C5E"/>
<circle cx="66" cy="71" r="4" fill="#3A2C5E"/>
<circle cx="78" cy="71" r="4" fill="#3A2C5E"/>
<circle cx="90" cy="71" r="4" fill="#3A2C5E"/>
<circle cx="102" cy="71" r="4" fill="#3A2C5E"/>
<circle cx="114" cy="71" r="4" fill="#3A2C5E"/>
<circle cx="126" cy="71" r="4" fill="#3A2C5E"/>
<circle cx="138" cy="71" r="4" fill="#3A2C5E"/>
<circle cx="150" cy="71" r="4" fill="#3A2C5E"/>
<circle cx="162" cy="71" r="4" fill="#3A2C5E"/>
<circle cx="174" cy="71" r="4" fill="#3A2C5E"/>
<circle cx="186" cy="71" r="4" fill="#3A2C5E"/>
<circle cx="198" cy="71" r="4" fill="#3A2C5E"/>
<circle cx="210" cy="71" r="4" fill="#3A2C5E"/>
<circle cx="6" cy="83" r="4" fill="#3A2C5E"/>
<circle cx="18" cy="83" r="4" fill="#3A2C5E"/>
<circle cx="30" cy="83" r="4" fill="#3A2C5E"/>
<circle cx="42" cy="83" r="4" fill="#3A2C5E"/>
<circle cx="54" cy="83" r="4" fill="#3A2C5E"/>
<circle cx="66" cy="83" r="4" fill="#3A2C5E"/>
<circle cx="78" cy="83" r="4" fill="#3A2C5E"/>
<circle cx="90" cy="83" r="4" fill="#3A2C5E"/>
<circle cx="102" cy="83" r="4" fill="#3A2C5E"/>
<circle cx="114" cy="83" r="4" fill="#3A2C5E"/>
<circle cx="126" cy="83" r="4" fill="#3A2C5E"/>
<circle cx="138" cy="83" r="4" fill="#3A2C5E"/>
<circle cx="150" cy="83" r="4" fill="#3A2C5E"/>
<circle cx="162" cy="83" r="4" fill="#3A2C5E"/>
<circle cx="174" cy="83" r="4" fill="#3A2C5E"/>
<circle cx="186" cy="83" r="4" fill="#3A2C5E"/>
<circle cx="198" cy="83" r="4" fill="#3A2C5E"/>
<circle cx="210" cy="83" r="4" fill="#3A2C5E"/>
<circle cx="6" cy="95" r="4" fill="#3A2C5E"/>
<circle cx="18" cy="95" r="4" fill="#3A2C5E"/>
<circle cx="30" cy="95" r="4" fill="#3A2C5E"/>
<circle cx="42" cy="95" r="4" fill="#3A2C5E"/>
<circle cx="54" cy="95" r="4" fill="#3A2C5E"/>
<circle cx="66" cy="95" r="4" fill="#3A2C5E"/>
<circle cx="78" cy="95" r="4" fill="#3A2C5E"/>
<circle cx="90" cy="95" r="4" fill="#3A2C5E"/>
<circle cx="102" cy="95" r="4" fill="#3A2C5E"/>
<circle cx="114" cy="95" r="4" fill="#3A2C5E"/>
<circle cx="126" cy="95" r="4" fill="#3A2C5E"/>
<circle cx="138" cy="95" r="4" fill="#3A2C5E"/>
<circle cx="150" cy="95" r="4" fill="#3A2C5E"/>
<circle cx="162" cy="95" r="4" fill="#3A2C5E"/>
<circle cx="174" cy="95" r="4" fill="#3A2C5E"/>
<circle cx="186" cy="95" r="4" fill="#3A2C5E"/>
<circle cx="198" cy="95" r="4" fill="#3A2C5E"/>
<circle cx="210" cy="95" r="4" fill="#3A2C5E"/>
<circle cx="6" cy="107" r="4" fill="#3A2C5E"/>
<circle cx="18" cy="107" r="4" fill="#3A2C5E"/>
<circle cx="30" cy="107" r="4" fill="#3A2C5E"/>
<circle cx="42" cy="107" r="4" fill="#3A2C5E"/>
<circle cx="54" cy="107" r="4" fill="#3A2C5E"/>
<circle cx="66" cy="107" r="4" fill="#3A2C5E"/>
<circle cx="78" cy="107" r="4" fill="#3A2C5E"/>
<circle cx="90" cy="107" r="4" fill="#3A2C5E"/>
<circle cx="102" cy="107" r="4" fill="#3A2C5E"/>
<circle cx="114" cy="107" r="4" fill="#3A2C5E"/>
<circle cx="126" cy="107" r="4" fill="#3A2C5E"/>
<circle cx="138" cy="107" r="4" fill="#3A2C5E"/>
<circle cx="150" cy="107" r="4" fill="#3A2C5E"/>
<circle cx="162" cy="107" r="4" fill="#3A2C5E"/>
<circle cx="174" cy="107" r="4" fill="#3A2C5E"/>
<circle cx="186" cy="107" r="4" fill="#3A2C5E"/>
<circle cx="198" cy="107" r="4" fill="#3A2C5E"/>
<circle cx="210" cy="107" r="4" fill="#3A2C5E"/>
<circle cx="6" cy="119" r="4" fill="#3A2C5E"/>
<circle cx="18" cy="119" r="4" fill="#3A2C5E"/>
<circle cx="30" cy="119" r="4" fill="#3A2C5E"/>
<circle cx="42" cy="119" r="4" fill="#3A2C5E"/>
<circle cx="54" cy="119" r="4" fill="#3A2C5E"/>
<circle cx="66" cy="119" r="4" fill="#3A2C5E"/>
<circle cx="78" cy="119" r="4" fill="#3A2C5E"/>
<circle cx="90" cy="119" r="4" fill="#3A2C5E"/>
<circle cx="102" cy="119" r="4" fill="#3A2C5E"/>
<circle cx="114" cy="119" r="4" fill="#3A2C5E"/>
<circle cx="126" cy="119" r="4" fill="#3A2C5E"/>
<circle cx="138" cy="119" r="4" fill="#3A2C5E"/>
<circle cx="150" cy="119" r="4" fill="#3A2C5E"/>
<circle cx="162" cy="119" r="4" fill="#3A2C5E"/>
<circle cx="174" cy="119" r="4" fill="#3A2C5E"/>
<circle cx="186" cy="119" r="4" fill="#3A2C5E"/>
<circle cx="198" cy="119" r="4" fill="#3A2C5E"/>
<circle cx="210" cy="119" r="4" fill="#3A2C5E"/>
<circle cx="6" cy="131" r="4" fill="#3A2C5E"/>
<circle cx="18" cy="131" r="4" fill="#3A2C5E"/>
<circle cx="30" cy="131" r="4" fill="#3A2C5E"/>
<circle cx="42" cy="131" r="4" fill="#3A2C5E"/>
<circle cx="54" cy="131" r="4" fill="#3A2C5E"/>
<circle cx="66" cy="131" r="4" fill="#3A2C5E"/>
<circle cx="78" cy="131" r="4" fill="#3A2C5E"/>
<circle cx="90" cy="131" r="4" fill="#3A2C5E"/>
<circle cx="102" cy="131" r="4" fill="#3A2C5E"/>
<circle cx="114" cy="131" r="4" fill="#3A2C5E"/>
<circle cx="126" cy="131" r="4" fill="#3A2C5E"/>
<circle cx="138" cy="131" r="4" fill="#3A2C5E"/>
<circle cx="150" cy="131" r="4" fill="#3A2C5E"/>
<circle cx="162" cy="131" r="4" fill="#3A2C5E"/>
<circle cx="174" cy="131" r="4" fill="#3A2C5E"/>
<circle cx="186" cy="131" r="4" fill="#3A2C5E"/>
<circle cx="198" cy="131" r="4" fill="#3A2C5E"/>
<circle cx="210" cy="131" r="4" fill="#3A2C5E"/>
<circle cx="6" cy="143" r="4" fill="#3A2C5E"/>
<circle cx="18" cy="143" r="4" fill="#3A2C5E"/>
<circle cx="30" cy="143" r="4" fill="#3A2C5E"/>
<circle cx="42" cy="143" r="4" fill="#3A2C5E"/>
<circle cx="54" cy="143" r="4" fill="#3A2C5E"/>
<circle cx="66" cy="143" r="4" fill="#3A2C5E"/>
<circle cx="78" cy="143" r="4" fill="#3A2C5E"/>
<circle cx="90" cy="143" r="4" fill="#3A2C5E"/>
<circle cx="102" cy="143" r="4" fill="#3A2C5E"/>
<circle cx="114" cy="143" r="4" fill="#3A2C5E"/>
<circle cx="126" cy="143" r="4" fill="#3A2C5E"/>
<circle cx="138" cy="143" r="4" fill="#3A2C5E"/>
<circle cx="150" cy="143" r="4" fill="#3A2C5E"/>
<circle cx="162" cy="143" r="4" fill="#3A2C5E"/>
<circle cx="174" cy="143" r="4" fill="#3A2C5E"/>
<circle cx="186" cy="143" r="4" fill="#3A2C5E"/>
<circle cx="198" cy="143" r="4" fill="#3A2C5E"/>
<circle cx="210" cy="143" r="4" fill="#3A2C5E"/>
<circle cx="6" cy="155" r="4" fill="#3A2C5E"/>
<circle cx="18" cy="155" r="4" fill="#3A2C5E"/>
<circle cx="30" cy="155" r="4" fill="#3A2C5E"/>
<circle cx="42" cy="155" r="4" fill="#3A2C5E"/>
<circle cx="54" cy="155" r="4" fill="#3A2C5E"/>
<circle cx="66" cy="155" r="4" fill="#3A2C5E"/>
<circle cx="78" cy="155" r="4" fill="#3A2C5E"/>
<circle cx="90" cy="155" r="4" fill="#3A2C5E"/>
<circle cx="102" cy="155" r="4" fill="#3A2C5E"/>
<circle cx="114" cy="155" r="4" fill="#3A2C5E"/>
<circle cx="126" cy="155" r="4" fill="#3A2C5E"/>
<circle cx="138" cy="155" r="4" fill="#3A2C5E"/>
<circle cx="150" cy="155" r="4" fill="#3A2C5E"/>
<circle cx="162" cy="155" r="4" fill="#3A2C5E"/>
<circle cx="174" cy="155" r="4" fill="#3A2C5E"/>
<circle cx="186" cy="155" r="4" fill="#3A2C5E"/>
<circle cx="198" cy="155" r="4" fill="#3A2C5E"/>
<circle cx="210" cy="155" r="4" fill="#3A2C5E"/>
<circle cx="6" cy="167" r="4" fill="#3A2C5E"/>
<circle cx="18" cy="167" r="4" fill="#3A2C5E"/>
<circle cx="30" cy="167" r="4" fill="#3A2C5E"/>
<circle cx="42" cy="167" r="4" fill="#3A2C5E"/>
<circle cx="54" cy="167" r="4" fill="#3A2C5E"/>
<circle cx="66" cy="167" r="4" fill="#3A2C5E"/>
<circle cx="78" cy="167" r="4" fill="#3A2C5E"/>
<circle cx="90" cy="167" r="4" fill="#3A2C5E"/>
<circle cx="102" cy="167" r="4" fill="#3A2C5E"/>
<circle cx="114" cy="167" r="4" fill="#3A2C5E"/>
<circle cx="126" cy="167" r="4" fill="#3A2C5E"/>
<circle cx="138" cy="167" r="4" fill="#3A2C5E"/>
<circle cx="150" cy="167" r="4" fill="#3A2C5E"/>
<circle cx="162" cy="167" r="4" fill="#3A2C5E"/>
<circle cx="174" cy="167" r="4" fill="#3A2C5E"/>
<circle cx="186" cy="167" r="4" fill="#3A2C5E"/>
<circle cx="198" cy="167" r="4" fill="#3A2C5E"/>
<circle cx="210" cy="167" r="4" fill="#3A2C5E"/>
<circle cx="6" cy="179" r="4" fill="#3A2C5E"/>
<circle cx="18" cy="179" r="4" fill="#3A2C5E"/>
<circle cx="30" cy="179" r="4" fill="#3A2C5E"/>
<circle cx="42" cy="179" r="4" fill="#3A2C5E"/>
<circle cx="54" cy="179" r="4" fill="#3A2C5E"/>
<circle cx="66" cy="179" r="4" fill="#3A2C5E"/>
<circle cx="78" cy="179" r="4" fill="#3A2C5E"/>
<circle cx="90" cy="179" r="4" fill="#3A2C5E"/>
<circle cx="102" cy="179" r="4" fill="#3A2C5E"/>
<circle cx="114" cy="179" r="4" fill="#3A2C5E"/>
<circle cx="126" cy="179" r="4" fill="#3A2C5E"/>
<circle cx="138" cy="179" r="4" fill="#3A2C5E"/>
<circle cx="150" cy="179" r="4" fill="#3A2C5E"/>
<circle cx="162" cy="179" r="4" fill="#3A2C5E"/>
<circle cx="174" cy="179" r="4" fill="#3A2C5E"/>
<circle cx="186" cy="179" r="4" fill="#3A2C5E"/>
<circle cx="198" cy="179" r="4" fill="#3A2C5E"/>
<circle cx="210" cy="179" r="4" fill="#3A2C5E"/>
<circle cx="6" cy="191" r="4" fill="#3A2C5E"/>
<circle cx="18" cy="191" r="4" fill="#3A2C5E"/>
<circle cx="30" cy="191" r="4" fill="#3A2C5E"/>
<circle cx="42" cy="191" r="4" fill="#3A2C5E"/>
<circle cx="54" cy="191" r="4" fill="#3A2C5E"/>
<circle cx="66" cy="191" r="4" fill="#3A2C5E"/>
<circle cx="78" cy="191" r="4" fill="#3A2C5E"/>
<circle cx="90" cy="191" r="4" fill="#3A2C5E"/>
<circle cx="102" cy="191" r="4" fill="#3A2C5E"/>
<circle cx="114" cy="191" r="4" fill="#3A2C5E"/>
<circle cx="126" cy="191" r="4" fill="#3A2C5E"/>
<circle cx="138" cy="191" r="4" fill="#3A2C5E"/>
<circle cx="150" cy="191" r="4" fill="#3A2C5E"/>
<circle cx="162" cy="191" r="4" fill="#3A2C5E"/>
<circle cx="174" cy="191" r="4" fill="#3A2C5E"/>
<circle cx="186" cy="191" r="4" fill="#3A2C5E"/>
<circle cx="198" cy="191" r="4" fill="#3A2C5E"/>
<circle cx="210" cy="191" r="4" fill="#3A2C5E"/>
<circle cx="6" cy="203" r="4" fill="#3A2C5E"/>
<circle cx="18" cy="203" r="4" fill="#3A2C5E"/>
<circle cx="30" cy="203" r="4" fill="#3A2C5E"/>
<circle cx="42" cy="203" r="4" fill="#3A2C5E"/>
<circle cx="54" cy="203" r="4" fill="#3A2C5E"/>
<circle cx="66" cy="203" r="4" fill="#3A2C5E"/>
<circle cx="78" cy="203" r="4" fill="#3A2C5E"/>
<circle cx="90" cy="203" r="4" fill="#3A2C5E"/>
<circle cx="102" cy="203" r="4" fill="#3A2C5E"/>
<circle cx="114" cy="203" r="4" fill="#3A2C5E"/>
<circle cx="126" cy="203" r="4" fill="#3A2C5E"/>
<circle cx="138" cy="203" r="4" fill="#3A2C5E"/>
<circle cx="150" cy="203" r="4" fill="#3A2C5E"/>
<circle cx="162" cy="203" r="4" fill="#3A2C5E"/>
<circle cx="174" cy="203" r="4" fill="#3A2C5E"/>
<circle cx="186" cy="203" r="4" fill="#3A2C5E"/>
<circle cx="198" cy="203" r="4" fill="#3A2C5E"/>
<circle cx="210" cy="203" r="4" fill="#3A2C5E"/>
<circle cx="6" cy="215" r="4" fill="#3A2C5E"/>
<circle cx="18" cy="215" r="4" fill="#3A2C5E"/>
<circle cx="30" cy="215" r="4" fill="#3A2C5E"/>
<circle cx="42" cy="215" r="4" fill="#3A2C5E"/>
<circle cx="54" cy="215" r="4" fill="#3A2C5E"/>
<circle cx="66" cy="215" r="4" fill="#3A2C5E"/>
<circle cx="78" cy="215" r="4" fill="#3A2C5E"/>
<circle cx="90" cy="215" r="4" fill="#3A2C5E"/>
<circle cx="102" cy="215" r="4" fill="#3A2C5E"/>
<circle cx="114" cy="215" r="4" fill="#3A2C5E"/>
<circle cx="126" cy="215" r="4" fill="#3A2C5E"/>
<circle cx="138" cy="215" r="4" fill="#3A2C5E"/>
<circle cx="150" cy="215" r="4" fill="#3A2C5E"/>
<circle cx="162" cy="215" r="4" fill="#3A2C5E"/>
<circle cx="174" cy="215" r="4" fill="#3A2C5E"/>
<circle cx="186" cy="215" r="4" fill="#3A2C5E"/>
<circle cx="198" cy="215" r="4" fill="#3A2C5E"/>
<circle cx="210" cy="215" r="4" fill="#3A2C5E"/>
</g>
</svg>
