<svg width="513" height="513" viewBox="0 0 513 513" fill="none" xmlns="http://www.w3.org/2000/svg">
<path d="M349.918 137.195C309.598 137.195 292.558 156.435 264.478 156.435C235.688 156.435 213.728 137.335 178.788 137.335C144.588 137.335 108.118 158.215 84.9577 193.785C52.4377 243.945 57.9577 338.415 110.628 418.895C129.468 447.705 154.628 480.015 187.628 480.365H188.228C216.908 480.365 225.428 461.585 264.898 461.365H265.498C304.378 461.365 312.178 480.255 340.738 480.255H341.338C374.338 479.905 400.848 444.105 419.688 415.405C433.248 394.765 438.288 384.405 448.688 361.055C372.498 332.135 360.258 224.125 435.608 182.715C412.608 153.915 380.288 137.235 349.818 137.235L349.918 137.195Z" fill="white"/>
<path d="M341.038 32.3354C317.038 33.9654 289.038 49.2454 272.638 69.1954C257.758 87.2755 245.518 114.095 250.318 140.105H252.238C277.798 140.105 303.958 124.715 319.238 104.995C333.958 86.2255 345.118 59.6255 341.038 32.3354Z" fill="white"/>
</svg>
